<?xml version="1.0" standalone="no"?>
<!DOCTYPE svg PUBLIC "-//W3C//DTD SVG 20010904//EN"
 "http://www.w3.org/TR/2001/REC-SVG-20010904/DTD/svg10.dtd">
<svg version="1.0" xmlns="http://www.w3.org/2000/svg"
 width="940.000000pt" height="940.000000pt" viewBox="0 0 940.000000 940.000000"
 preserveAspectRatio="xMidYMid meet">
<metadata>
Created by potrace 1.14, written by Peter Selinger 2001-2017
</metadata>
<g transform="translate(0.000000,940.000000) scale(0.100000,-0.100000)"
fill="#000000" stroke="none">
<path d="M4449 9026 c-2 -2 -56 -7 -120 -10 -64 -4 -125 -8 -136 -10 -11 -3
-44 -7 -74 -11 -97 -11 -134 -16 -149 -20 -8 -2 -39 -7 -69 -10 -62 -8 -53 -6
-191 -35 -104 -21 -189 -41 -265 -62 -22 -6 -46 -13 -52 -15 -30 -7 -40 -10
-83 -22 -25 -8 -49 -14 -55 -16 -5 -1 -17 -5 -25 -8 -8 -3 -64 -22 -125 -43
-60 -20 -116 -41 -122 -47 -7 -5 -13 -7 -13 -4 0 3 -37 -10 -82 -30 -46 -19
-100 -41 -120 -48 -64 -24 -385 -183 -393 -194 -3 -6 -11 -9 -16 -6 -5 4 -9 1
-9 -4 0 -6 -5 -11 -11 -11 -6 0 -45 -20 -86 -45 -40 -25 -77 -45 -82 -45 -5 0
-15 -7 -22 -16 -7 -9 -22 -20 -34 -25 -21 -10 -51 -28 -72 -44 -7 -5 -49 -35
-93 -65 -108 -73 -298 -219 -342 -262 -10 -10 -20 -18 -23 -18 -14 0 -351
-329 -431 -421 -27 -30 -62 -71 -78 -89 -16 -19 -72 -88 -123 -154 -51 -67
-97 -126 -103 -133 -5 -7 -10 -16 -10 -22 0 -5 -3 -11 -8 -13 -4 -1 -30 -37
-57 -78 -28 -41 -54 -78 -58 -81 -5 -3 -9 -10 -9 -15 0 -5 -16 -33 -34 -62
-19 -29 -34 -56 -34 -60 0 -5 -9 -18 -20 -30 -12 -12 -18 -22 -15 -22 7 0 -57
-113 -69 -122 -6 -4 -7 -8 -1 -8 5 0 4 -5 -3 -12 -7 -7 -12 -20 -12 -30 0 -10
-4 -18 -9 -18 -5 0 -14 -15 -21 -32 -7 -18 -27 -62 -45 -98 -18 -36 -33 -68
-34 -72 -1 -4 -10 -28 -21 -54 -11 -25 -20 -49 -20 -52 0 -4 -6 -19 -14 -34
-8 -14 -19 -43 -26 -65 -7 -21 -18 -51 -25 -68 -15 -36 -72 -218 -81 -260 -4
-16 -9 -34 -13 -40 -3 -5 -6 -16 -8 -24 -1 -7 -7 -36 -14 -65 -7 -28 -14 -53
-14 -56 -1 -3 -4 -18 -8 -35 -22 -92 -63 -333 -72 -420 -2 -22 -7 -74 -12
-115 -10 -99 -10 -624 1 -720 4 -41 9 -95 11 -120 2 -25 4 -45 5 -45 1 0 4
-11 5 -25 12 -83 15 -109 22 -140 3 -19 7 -39 7 -45 12 -101 109 -477 146
-570 5 -11 14 -38 21 -60 6 -22 15 -45 20 -50 4 -6 10 -22 13 -35 2 -14 12
-43 22 -65 10 -22 18 -42 19 -45 1 -3 9 -22 18 -44 9 -21 17 -41 17 -44 0 -7
177 -361 199 -397 10 -16 27 -46 38 -65 43 -76 88 -145 95 -148 4 -2 8 -8 8
-13 0 -6 18 -34 40 -64 22 -30 40 -56 40 -59 0 -11 214 -287 265 -342 5 -6 37
-41 70 -79 166 -187 406 -408 615 -565 18 -14 38 -30 44 -35 6 -6 34 -26 61
-45 28 -19 51 -37 53 -42 2 -4 8 -8 13 -8 11 0 72 -42 77 -52 2 -5 10 -8 18
-8 8 0 14 -4 14 -10 0 -5 4 -10 9 -10 6 0 52 -26 103 -58 51 -32 120 -74 153
-92 98 -55 396 -201 417 -205 11 -3 25 -8 32 -13 6 -5 49 -23 96 -41 47 -18
92 -36 102 -41 18 -10 208 -74 337 -114 46 -14 87 -23 92 -20 5 3 9 0 9 -5 0
-6 14 -11 30 -11 17 0 30 -4 30 -8 0 -4 11 -9 25 -10 14 -1 63 -11 108 -22 45
-11 93 -22 107 -24 14 -3 36 -7 50 -10 26 -6 90 -17 127 -21 12 -2 34 -6 50
-9 26 -5 52 -9 145 -21 71 -10 161 -18 316 -30 173 -13 571 -7 727 11 22 2 67
6 100 9 33 2 60 4 60 5 0 1 14 3 30 5 17 2 50 7 75 10 25 3 81 12 125 20 44 8
91 16 105 19 14 2 36 7 50 10 14 3 36 8 50 10 14 2 63 14 110 26 47 12 92 23
100 25 35 7 109 28 168 47 34 11 68 21 75 22 6 2 20 6 30 9 9 4 25 10 35 14 9
3 23 7 30 9 22 4 117 39 122 44 3 3 12 6 20 8 20 5 131 48 195 77 28 12 82 36
120 53 115 51 376 188 427 223 14 11 29 19 33 19 3 0 21 11 39 25 18 14 36 25
39 25 9 0 180 115 249 167 31 24 61 43 67 43 6 0 11 4 11 8 0 5 19 22 43 39
23 17 52 39 63 49 12 11 39 33 60 49 21 17 53 45 72 62 19 18 36 33 38 33 10
0 209 195 309 301 292 313 554 697 739 1081 31 65 56 120 56 123 0 2 10 28 23
57 21 47 44 104 67 163 4 11 15 43 25 70 9 28 19 57 22 65 4 8 7 18 8 23 2 4
3 8 5 10 1 1 3 9 5 17 2 8 18 62 35 120 28 95 73 282 85 353 8 43 14 80 19
102 2 11 7 40 11 65 3 25 9 58 11 75 3 16 7 56 10 90 3 33 7 76 9 95 15 123
21 442 10 460 -3 6 -1 10 5 10 6 0 9 4 6 9 -3 4 -8 48 -11 97 -9 153 -14 208
-19 244 -2 19 -8 57 -11 83 -4 27 -8 58 -10 69 -3 11 -6 39 -9 62 -3 23 -7 49
-10 57 -3 7 -8 32 -11 54 -7 44 -13 70 -15 70 -1 0 -3 12 -5 27 -2 16 -6 37
-10 47 -7 22 -14 54 -22 91 -2 14 -7 32 -9 40 -3 8 -6 17 -6 20 0 3 -5 16 -10
30 -6 14 -11 34 -13 45 -3 21 -60 196 -74 230 -5 11 -14 36 -21 55 -15 44 -23
63 -49 122 -12 26 -21 50 -21 53 0 16 -140 304 -159 328 -8 9 -11 17 -7 17 4
0 -2 12 -13 26 -12 15 -21 30 -21 35 0 12 -92 163 -102 167 -4 2 -8 8 -8 13 0
9 -69 122 -89 145 -5 6 -35 49 -67 95 -32 46 -66 91 -76 100 -10 9 -18 21 -18
27 0 6 -3 12 -7 14 -5 2 -26 26 -48 53 -21 28 -45 54 -52 58 -7 4 -13 12 -13
16 0 13 -93 114 -245 266 -182 181 -214 211 -371 336 -151 120 -189 148 -339
246 -60 40 -115 76 -120 80 -6 4 -30 19 -55 32 -25 14 -48 29 -52 35 -4 6 -8
7 -8 2 0 -5 -8 -2 -17 6 -10 9 -56 35 -103 59 -47 24 -86 47 -88 51 -2 5 -8 8
-12 8 -5 0 -48 18 -97 41 -145 67 -166 77 -218 99 -27 12 -59 26 -70 31 -27
12 -187 70 -200 73 -5 1 -21 8 -35 16 -14 7 -26 12 -28 11 -1 -1 -41 10 -89
24 -48 15 -91 28 -97 29 -6 1 -16 4 -21 8 -6 3 -28 9 -50 13 -22 4 -47 11 -55
16 -9 4 -36 10 -60 14 -25 4 -49 9 -54 12 -5 3 -23 8 -40 9 -17 2 -38 7 -46
11 -19 8 -35 11 -80 17 -19 3 -35 5 -35 7 0 1 -9 3 -20 4 -11 2 -33 6 -50 9
-29 6 -60 11 -127 21 -18 2 -49 7 -68 10 -48 7 -104 14 -175 21 -32 3 -75 8
-95 10 -49 5 -637 14 -641 10z"/>
</g>
</svg>
